<svg width="29" height="28" viewBox="0 0 29 28" fill="none" xmlns="http://www.w3.org/2000/svg">
<path d="M10.7917 6.35592C11.4894 4.31425 14.3104 4.25242 15.1375 6.17042L15.2075 6.35709L16.149 9.11042C16.3648 9.74186 16.7135 10.3197 17.1715 10.8049C17.6296 11.2901 18.1864 11.6715 18.8044 11.9233L19.0575 12.0178L21.8109 12.9581C23.8525 13.6558 23.9144 16.4768 21.9975 17.3039L21.8109 17.3739L19.0575 18.3154C18.4259 18.531 17.8478 18.8797 17.3624 19.3377C16.8769 19.7958 16.4954 20.3527 16.2435 20.9708L16.149 21.2228L15.2087 23.9773C14.511 26.0189 11.69 26.0808 10.864 24.1639L10.7917 23.9773L9.85137 21.2239C9.63575 20.5923 9.28714 20.0142 8.82907 19.5288C8.371 19.0433 7.81413 18.6618 7.19604 18.4099L6.94404 18.3154L4.1907 17.3751C2.14787 16.6774 2.08604 13.8564 4.00404 13.0304L4.1907 12.9581L6.94404 12.0178C7.57548 11.802 8.1533 11.4533 8.63853 10.9952C9.12376 10.5372 9.50512 9.98039 9.75687 9.36242L9.85137 9.11042L10.7917 6.35592ZM22.3335 2.33325C22.5518 2.33325 22.7657 2.39448 22.9509 2.50997C23.1361 2.62546 23.2852 2.79059 23.3812 2.98659L23.4372 3.12309L23.8455 4.32009L25.0437 4.72842C25.2624 4.80273 25.4542 4.9403 25.5946 5.1237C25.7351 5.3071 25.8179 5.52807 25.8327 5.75861C25.8474 5.98915 25.7934 6.21887 25.6775 6.41867C25.5615 6.61847 25.3888 6.77935 25.1814 6.88092L25.0437 6.93692L23.8467 7.34525L23.4384 8.54342C23.3639 8.76209 23.2262 8.95373 23.0428 9.09408C22.8593 9.23442 22.6383 9.31714 22.4078 9.33176C22.1773 9.34638 21.9476 9.29224 21.7478 9.17619C21.5481 9.06015 21.3873 8.88743 21.2859 8.67992L21.2299 8.54342L20.8215 7.34642L19.6234 6.93809C19.4046 6.86377 19.2129 6.7262 19.0724 6.5428C18.932 6.3594 18.8491 6.13843 18.8344 5.90789C18.8196 5.67736 18.8737 5.44763 18.9896 5.24783C19.1056 5.04803 19.2782 4.88716 19.4857 4.78559L19.6234 4.72959L20.8204 4.32125L21.2287 3.12309C21.3074 2.89258 21.4562 2.69248 21.6543 2.55083C21.8525 2.40919 22.09 2.33311 22.3335 2.33325Z" fill="white"/>
</svg>
