<svg width="18" height="18" viewBox="0 0 18 18" fill="none" xmlns="http://www.w3.org/2000/svg">
<path d="M9.00003 16.0711C8.02187 17.0492 6.84336 17.5383 5.4645 17.5383C4.08564 17.5383 2.90713 17.0492 1.92897 16.0711C0.950802 15.0929 0.46172 13.9144 0.46172 12.5355C0.46172 11.1567 0.950802 9.97815 1.92897 8.99999L4.05029 6.87867C4.25063 6.67832 4.48634 6.57815 4.75739 6.57815C5.02845 6.57815 5.26415 6.67832 5.4645 6.87867C5.66485 7.07902 5.76502 7.31472 5.76502 7.58577C5.76502 7.85683 5.66485 8.09253 5.4645 8.29288L3.34318 10.4142C2.75392 11.0035 2.4593 11.7106 2.4593 12.5355C2.4593 13.3605 2.75392 14.0676 3.34318 14.6568C3.93244 15.2461 4.63954 15.5407 5.4645 15.5407C6.28946 15.5407 6.99656 15.2461 7.58582 14.6568L9.70714 12.5355C9.90749 12.3352 10.1432 12.235 10.4142 12.235C10.6853 12.235 10.921 12.3352 11.1214 12.5355C11.3217 12.7359 11.4219 12.9716 11.4219 13.2426C11.4219 13.5137 11.3217 13.7494 11.1214 13.9497L9.00003 16.0711ZM7.58582 11.8284C7.38547 12.0288 7.14977 12.1289 6.87871 12.1289C6.60766 12.1289 6.37195 12.0288 6.17161 11.8284C5.97126 11.6281 5.87109 11.3924 5.87109 11.1213C5.87109 10.8503 5.97126 10.6145 6.17161 10.4142L10.4142 6.17156C10.6146 5.97121 10.8503 5.87104 11.1214 5.87104C11.3924 5.87104 11.6281 5.97121 11.8285 6.17156C12.0288 6.37191 12.129 6.60761 12.129 6.87867C12.129 7.14973 12.0288 7.38543 11.8285 7.58578L7.58582 11.8284ZM13.9498 11.1213C13.7494 11.3217 13.5137 11.4218 13.2427 11.4218C12.9716 11.4218 12.7359 11.3217 12.5356 11.1213C12.3352 10.921 12.235 10.6853 12.235 10.4142C12.235 10.1431 12.3352 9.90744 12.5356 9.7071L14.6569 7.58578C15.2461 6.99652 15.5408 6.28941 15.5408 5.46445C15.5408 4.6395 15.2461 3.93239 14.6569 3.34313C14.0676 2.75388 13.3605 2.45925 12.5356 2.45925C11.7106 2.45925 11.0035 2.75388 10.4142 3.34313L8.29293 5.46445C8.09258 5.6648 7.85688 5.76497 7.58582 5.76497C7.31476 5.76497 7.07906 5.6648 6.87871 5.46445C6.67837 5.26411 6.57819 5.02841 6.57819 4.75735C6.57819 4.48629 6.67837 4.25059 6.87871 4.05024L9.00003 1.92892C9.9782 0.950757 11.1567 0.461674 12.5356 0.461674C13.9144 0.461674 15.0929 0.950757 16.0711 1.92892C17.0493 2.90709 17.5383 4.0856 17.5383 5.46445C17.5383 6.84331 17.0493 8.02182 16.0711 8.99999L13.9498 11.1213Z" fill="white"/>
</svg>
